<?xml version="1.0" standalone="no"?>
<!DOCTYPE svg PUBLIC "-//W3C//DTD SVG 20010904//EN"
 "http://www.w3.org/TR/2001/REC-SVG-20010904/DTD/svg10.dtd">
<svg version="1.0" xmlns="http://www.w3.org/2000/svg"
 width="1107.000000pt" height="1280.000000pt" viewBox="0 0 1107.000000 1280.000000"
 preserveAspectRatio="xMidYMid meet">
<metadata>
Created by potrace 1.15, written by Peter Selinger 2001-2017
</metadata>
<g transform="translate(0.000000,1280.000000) scale(0.100000,-0.100000)"
fill="#66c8d4" stroke="none">
<path d="M5396 12789 c-22 -5 -72 -25 -110 -44 -81 -39 -1157 -794 -1225 -858
-79 -75 -103 -144 -63 -180 9 -8 325 -211 702 -451 l685 -436 60 0 c74 0 169
33 250 85 84 53 1091 760 1141 801 53 43 104 119 104 156 0 17 -9 36 -22 48
-13 10 -329 214 -703 451 -640 407 -683 433 -730 435 -27 2 -68 -1 -89 -7z"/>
<path d="M7278 11586 c-36 -13 -91 -39 -121 -57 -150 -94 -1130 -791 -1178
-839 -33 -33 -61 -71 -69 -94 -11 -34 -10 -41 7 -64 11 -14 329 -223 708 -464
680 -432 690 -438 741 -438 67 0 164 30 234 73 115 69 1147 801 1192 845 27
25 55 65 64 89 15 39 15 45 1 67 -9 13 -326 221 -704 462 l-688 438 -60 3
c-44 2 -78 -4 -127 -21z"/>
<path d="M3548 11501 c-31 -10 -81 -32 -111 -49 -91 -51 -1149 -800 -1198
-847 -74 -72 -96 -134 -61 -173 15 -17 1317 -849 1381 -882 17 -8 47 -11 93
-7 117 10 186 52 781 470 301 212 565 399 586 416 83 66 125 167 84 203 -19
16 -1342 856 -1380 876 -31 17 -109 14 -175 -7z"/>
<path d="M9203 10365 c-29 -8 -78 -28 -110 -44 -94 -47 -1182 -816 -1235 -872
-54 -56 -77 -114 -59 -147 15 -28 1375 -893 1423 -905 51 -13 154 13 241 61
116 63 1147 792 1214 858 64 63 86 113 67 155 -5 10 -321 217 -702 459 -763
486 -727 467 -839 435z"/>
<path d="M5410 10307 c-36 -13 -78 -31 -95 -39 -64 -34 -1162 -812 -1206 -855
-55 -53 -84 -111 -75 -146 5 -20 152 -118 708 -471 695 -442 702 -446 754
-446 58 0 170 34 231 71 74 45 1135 794 1180 833 74 65 105 153 66 188 -10 9
-324 211 -698 449 l-680 433 -60 3 c-45 3 -76 -2 -125 -20z"/>
<path d="M1658 10196 c-37 -13 -84 -34 -105 -47 -67 -41 -1116 -780 -1163
-818 -90 -75 -126 -165 -82 -203 17 -16 1284 -823 1357 -865 24 -13 57 -23 80
-23 54 0 144 24 203 54 72 37 1171 811 1223 863 55 53 84 111 75 147 -5 20
-143 112 -689 459 -375 239 -692 439 -704 445 -35 19 -123 14 -195 -12z"/>
<path d="M10917 9169 c-88 -46 -1314 -932 -1366 -986 -33 -35 -68 -87 -90
-133 l-36 -75 0 -663 0 -664 28 -24 c35 -30 59 -30 118 -1 79 38 1333 942
1378 993 50 57 86 121 106 187 22 75 23 1303 0 1346 -24 47 -74 54 -138 20z"/>
<path d="M7381 9085 c-29 -8 -83 -31 -120 -50 -78 -42 -1122 -773 -1199 -841
-66 -58 -100 -122 -86 -161 8 -23 141 -112 689 -461 374 -238 691 -438 705
-444 57 -24 166 -5 270 47 89 45 1174 814 1227 870 53 56 72 102 59 143 -5 13
-258 180 -703 463 -768 488 -725 466 -842 434z"/>
<path d="M3560 8989 c-25 -4 -79 -26 -120 -47 -61 -31 -1073 -733 -1202 -834
-72 -56 -117 -153 -90 -195 6 -10 1322 -851 1379 -882 63 -33 213 0 326 72 65
42 1051 734 1123 788 58 44 112 114 120 157 4 22 0 35 -18 54 -25 28 -1332
862 -1385 884 -36 15 -66 16 -133 3z"/>
<path d="M51 8771 l-21 -21 2 -673 3 -672 28 -58 c59 -120 94 -147 771 -601
347 -233 647 -431 666 -441 53 -27 117 -26 141 4 19 23 19 44 17 695 l-3 671
-30 60 c-58 117 -112 158 -802 619 -620 415 -643 429 -696 434 -46 4 -58 1
-76 -17z"/>
<path d="M9043 7845 c-56 -24 -1290 -914 -1326 -956 -40 -46 -89 -134 -120
-216 -21 -57 -22 -70 -25 -643 -3 -640 -3 -644 55 -690 31 -25 86 -25 129 -2
68 37 1251 890 1291 931 85 85 145 216 164 357 6 50 9 269 7 599 -3 517 -3
520 -26 566 -32 66 -81 84 -149 54z"/>
<path d="M5408 7766 c-37 -13 -84 -34 -105 -47 -21 -13 -288 -198 -593 -412
-345 -241 -574 -409 -607 -442 -62 -66 -82 -115 -59 -149 8 -13 325 -221 703
-463 l688 -438 75 1 c127 1 152 15 788 461 587 411 668 475 692 549 11 32 10
39 -7 62 -10 14 -329 223 -709 464 l-689 438 -55 0 c-32 0 -83 -10 -122 -24z"/>
<path d="M1941 7539 c-12 -11 -26 -32 -32 -46 -5 -14 -9 -278 -9 -634 0 -592
1 -611 21 -672 27 -80 77 -161 131 -213 49 -47 1250 -857 1312 -885 54 -24 77
-24 111 3 55 43 55 37 55 676 0 644 0 643 -61 763 -52 105 -103 147 -459 387
-184 124 -465 313 -623 419 -158 107 -303 201 -322 209 -49 20 -97 18 -124 -7z"/>
<path d="M10905 7188 c-11 -6 -309 -218 -662 -470 -385 -275 -658 -476 -682
-504 -45 -51 -93 -145 -118 -231 -15 -51 -18 -125 -21 -611 -3 -618 -1 -645
53 -699 35 -35 70 -42 108 -21 12 6 311 217 663 469 408 291 657 475 683 506
56 63 106 170 126 268 13 69 15 158 13 640 -3 559 -3 560 -26 602 -12 23 -31
47 -41 53 -25 13 -71 12 -96 -2z"/>
<path d="M59 6851 l-29 -30 2 -658 3 -658 34 -70 c61 -125 106 -160 781 -611
338 -226 629 -419 647 -428 33 -16 88 -21 118 -10 44 17 45 26 45 698 0 715 4
677 -77 799 -25 37 -64 83 -86 102 -67 55 -1247 845 -1302 871 -67 32 -100 31
-136 -5z"/>
<path d="M6513 6025 l-702 -506 -35 -69 c-70 -140 -71 -156 -71 -805 0 -532 1
-584 18 -631 22 -64 47 -88 84 -82 27 4 1335 938 1400 1000 34 33 72 110 100
203 15 54 18 122 21 639 2 395 -1 595 -8 632 -14 67 -48 118 -81 122 -19 2
-180 -109 -726 -503z"/>
<path d="M3810 6387 c-14 -7 -33 -28 -42 -47 -17 -32 -18 -84 -18 -641 0 -665
-1 -652 62 -771 17 -32 51 -79 77 -105 51 -53 1260 -870 1338 -905 39 -17 52
-19 83 -9 74 22 72 -5 68 717 l-3 640 -39 80 c-27 54 -58 98 -100 139 -42 41
-251 188 -665 465 -332 223 -625 415 -650 427 -52 26 -76 28 -111 10z"/>
<path d="M8415 5449 c-363 -259 -675 -485 -693 -503 -45 -41 -77 -98 -107
-185 -43 -127 -46 -191 -43 -756 3 -513 4 -531 24 -575 28 -61 49 -80 88 -80
28 0 142 77 692 471 363 259 673 484 691 501 40 38 85 123 112 211 36 119 43
251 39 757 -4 405 -7 482 -21 524 -20 60 -62 106 -97 106 -18 0 -223 -141
-685 -471z"/>
<path d="M1947 5670 c-14 -11 -34 -42 -44 -68 -17 -43 -18 -88 -18 -607 0
-437 3 -572 14 -615 18 -76 82 -207 126 -257 43 -50 1288 -890 1341 -905 51
-14 97 12 126 70 l23 47 0 565 c0 444 -3 577 -14 620 -21 86 -85 214 -132 265
-28 31 -254 188 -659 460 -338 226 -629 420 -647 429 -43 22 -85 20 -116 -4z"/>
<path d="M10875 5336 c-54 -24 -1269 -897 -1316 -946 -25 -26 -64 -83 -86
-126 -74 -142 -73 -132 -73 -775 0 -547 1 -576 20 -617 31 -69 100 -87 170
-43 114 71 1256 897 1293 936 54 56 119 179 142 270 13 49 15 153 15 630 0
538 -1 572 -19 612 -19 42 -62 73 -98 73 -10 -1 -32 -7 -48 -14z"/>
<path d="M47 5009 c-47 -27 -47 -28 -47 -687 0 -711 -2 -688 90 -820 39 -56
70 -86 147 -140 213 -149 1198 -805 1237 -823 59 -27 92 -24 127 10 l29 30 -2
658 -3 658 -34 69 c-62 127 -100 157 -771 606 -338 227 -633 421 -655 431 -44
21 -91 24 -118 8z"/>
<path d="M7123 4493 c-133 -83 -1202 -862 -1255 -915 -31 -31 -75 -88 -97
-125 -74 -126 -72 -105 -69 -796 l3 -615 24 -26 c31 -33 94 -35 154 -5 22 12
305 211 627 443 657 473 701 510 771 651 l44 88 3 626 c1 344 0 636 -3 649
-18 74 -105 84 -202 25z"/>
<path d="M3776 4494 c-9 -8 -18 -25 -21 -37 -3 -12 -4 -317 -3 -677 l3 -655
30 -60 c59 -118 105 -153 775 -603 344 -230 639 -426 656 -435 57 -29 105 -32
137 -7 l27 21 0 672 0 672 -29 61 c-57 121 -104 157 -771 605 -338 227 -635
423 -659 436 -52 27 -122 31 -145 7z"/>
<path d="M8967 3904 c-72 -39 -1217 -867 -1253 -906 -76 -82 -141 -218 -169
-353 -23 -112 -22 -1027 1 -1105 22 -75 68 -120 124 -120 23 0 51 5 63 11 12
7 295 207 628 445 390 279 618 448 641 476 92 112 152 269 169 441 7 71 9 271
7 538 -4 363 -7 431 -21 476 -32 96 -114 138 -190 97z"/>
<path d="M1975 3753 c-30 -7 -63 -42 -77 -82 -19 -54 -19 -1164 1 -1241 21
-86 89 -208 146 -263 62 -60 1276 -873 1323 -887 51 -14 95 8 124 62 l23 43 0
585 c0 543 -1 589 -19 645 -27 87 -81 186 -130 237 -35 36 -1229 849 -1301
885 -28 14 -67 21 -90 16z"/>
<path d="M7159 2566 c-44 -15 20 29 -706 -494 -647 -466 -694 -505 -755 -629
l-33 -68 -3 -663 -2 -662 24 -25 c33 -33 70 -32 137 3 56 28 1203 851 1296
929 28 24 72 74 96 111 82 125 77 72 77 808 l0 655 -25 24 c-27 28 -53 30
-106 11z"/>
<path d="M3782 2482 c-56 -59 -57 -77 -57 -672 0 -608 -1 -596 72 -749 63
-133 12 -94 1004 -760 427 -287 433 -289 493 -229 60 60 61 66 61 668 0 539 0
546 -23 625 -30 102 -84 205 -136 258 -23 23 -323 231 -666 461 -565 379 -629
420 -672 424 -43 4 -50 2 -76 -26z"/>
</g>
</svg>
